<svg width="56" height="29" viewBox="0 0 56 29" fill="none" xmlns="http://www.w3.org/2000/svg">
<path d="M52.3955 11.3591L40.9084 9.24923C40.791 9.24923 40.6741 9.13189 40.6152 9.07343C39.5016 7.72556 32.4104 0.282257 27.7801 0.282257H11.5457C7.73645 0.282257 4.27827 3.85734 2.10988 6.84623C0.70319 8.72189 0 11.0076 0 13.3517V20.1503C0 22.3187 1.75834 24.077 3.92673 24.077H4.80568C5.50885 26.8901 8.02921 29 11.0769 29C14.1246 29 16.6446 26.8901 17.3482 24.077H38.5056C39.2088 26.8901 41.7291 29 44.7769 29C47.8246 29 50.3445 26.8901 51.0481 24.077H51.1654C53.0995 24.077 54.799 22.6118 55.0337 20.6778L55.6784 15.7548C55.8533 13.6449 54.447 11.7108 52.3956 11.3592L52.3955 11.3591ZM10.9598 25.8939C9.08409 25.8939 7.5605 24.3702 7.5605 22.4946C7.5605 20.619 9.0842 19.0953 10.9598 19.0953C12.8353 19.0953 14.359 20.619 14.359 22.4946C14.4175 24.3698 12.8938 25.8939 10.9598 25.8939ZM18.6373 10.187H8.4394C7.91203 10.187 7.56046 9.65957 7.85316 9.19067C9.37686 6.4945 13.1866 3.85725 15.0618 3.85725H17.6407C17.9923 3.85725 18.2854 4.0915 18.3438 4.4435L19.3401 9.36645C19.3994 9.7769 19.0474 10.1869 18.6374 10.1869L18.6373 10.187ZM35.0475 10.187H23.7948C23.4432 10.187 23.1501 9.9527 23.0916 9.60071L22.0953 4.67775C22.0369 4.2673 22.3296 3.85726 22.7985 3.85726H27.7799C29.4794 3.85726 32.996 6.55343 35.5164 8.95604C35.9849 9.42496 35.6922 10.187 35.0475 10.187V10.187ZM44.6592 25.8939C42.7835 25.8939 41.2599 24.3702 41.2599 22.4946C41.2599 20.619 42.7836 19.0953 44.6592 19.0953C46.5347 19.0953 48.0584 20.619 48.0584 22.4946C48.0584 24.3698 46.5344 25.8939 44.6592 25.8939Z" fill="#596B86"/>
</svg>
